<mxfile host="app.diagrams.net" agent="Mozilla/5.0 (Windows NT 10.0; Win64; x64) AppleWebKit/537.36 (KHTML, like Gecko) Chrome/131.0.0.0 Safari/537.36" version="24.9.0">
  <diagram name="PÃ¡gina-1" id="-DJ3JQi61xgNnQrJ6BNl">
    <mxGraphModel dx="803" dy="857" grid="1" gridSize="10" guides="1" tooltips="1" connect="1" arrows="1" fold="1" page="1" pageScale="1" pageWidth="827" pageHeight="1169" math="0" shadow="0">
      <root>
        <mxCell id="0" />
        <mxCell id="1" parent="0" />
        <mxCell id="jfMkEadQY8UJY2CXn8ux-1" value="User" style="shape=table;startSize=30;container=1;collapsible=1;childLayout=tableLayout;fixedRows=1;rowLines=0;fontStyle=1;align=center;resizeLast=1;html=1;" vertex="1" parent="1">
          <mxGeometry x="140" y="130" width="180" height="190" as="geometry" />
        </mxCell>
        <mxCell id="jfMkEadQY8UJY2CXn8ux-2" value="" style="shape=tableRow;horizontal=0;startSize=0;swimlaneHead=0;swimlaneBody=0;fillColor=none;collapsible=0;dropTarget=0;points=[[0,0.5],[1,0.5]];portConstraint=eastwest;top=0;left=0;right=0;bottom=1;" vertex="1" parent="jfMkEadQY8UJY2CXn8ux-1">
          <mxGeometry y="30" width="180" height="30" as="geometry" />
        </mxCell>
        <mxCell id="jfMkEadQY8UJY2CXn8ux-3" value="PK" style="shape=partialRectangle;connectable=0;fillColor=none;top=0;left=0;bottom=0;right=0;fontStyle=1;overflow=hidden;whiteSpace=wrap;html=1;" vertex="1" parent="jfMkEadQY8UJY2CXn8ux-2">
          <mxGeometry width="30" height="30" as="geometry">
            <mxRectangle width="30" height="30" as="alternateBounds" />
          </mxGeometry>
        </mxCell>
        <mxCell id="jfMkEadQY8UJY2CXn8ux-4" value="user_id" style="shape=partialRectangle;connectable=0;fillColor=none;top=0;left=0;bottom=0;right=0;align=left;spacingLeft=6;fontStyle=5;overflow=hidden;whiteSpace=wrap;html=1;" vertex="1" parent="jfMkEadQY8UJY2CXn8ux-2">
          <mxGeometry x="30" width="150" height="30" as="geometry">
            <mxRectangle width="150" height="30" as="alternateBounds" />
          </mxGeometry>
        </mxCell>
        <mxCell id="jfMkEadQY8UJY2CXn8ux-11" value="" style="shape=tableRow;horizontal=0;startSize=0;swimlaneHead=0;swimlaneBody=0;fillColor=none;collapsible=0;dropTarget=0;points=[[0,0.5],[1,0.5]];portConstraint=eastwest;top=0;left=0;right=0;bottom=0;" vertex="1" parent="jfMkEadQY8UJY2CXn8ux-1">
          <mxGeometry y="60" width="180" height="130" as="geometry" />
        </mxCell>
        <mxCell id="jfMkEadQY8UJY2CXn8ux-12" value="" style="shape=partialRectangle;connectable=0;fillColor=none;top=0;left=0;bottom=0;right=0;editable=1;overflow=hidden;whiteSpace=wrap;html=1;" vertex="1" parent="jfMkEadQY8UJY2CXn8ux-11">
          <mxGeometry width="30" height="130" as="geometry">
            <mxRectangle width="30" height="130" as="alternateBounds" />
          </mxGeometry>
        </mxCell>
        <mxCell id="jfMkEadQY8UJY2CXn8ux-13" value="&lt;li&gt;&lt;span style=&quot;background-color: initial;&quot;&gt;full_name&lt;/span&gt;&lt;/li&gt;&lt;li&gt;username&lt;/li&gt;&lt;li&gt;email&lt;/li&gt;&lt;li&gt;password_user&lt;/li&gt;&lt;li&gt;token&lt;/li&gt;&lt;li&gt;birth_date&lt;/li&gt;&lt;li&gt;type_user&lt;/li&gt;" style="shape=partialRectangle;connectable=0;fillColor=none;top=0;left=0;bottom=0;right=0;align=left;spacingLeft=6;overflow=hidden;whiteSpace=wrap;html=1;" vertex="1" parent="jfMkEadQY8UJY2CXn8ux-11">
          <mxGeometry x="30" width="150" height="130" as="geometry">
            <mxRectangle width="150" height="130" as="alternateBounds" />
          </mxGeometry>
        </mxCell>
        <mxCell id="jfMkEadQY8UJY2CXn8ux-24" value="Transacao" style="shape=table;startSize=30;container=1;collapsible=1;childLayout=tableLayout;fixedRows=1;rowLines=0;fontStyle=1;align=center;resizeLast=1;html=1;whiteSpace=wrap;" vertex="1" parent="1">
          <mxGeometry x="150" y="490" width="180" height="120" as="geometry" />
        </mxCell>
        <mxCell id="jfMkEadQY8UJY2CXn8ux-31" value="" style="shape=tableRow;horizontal=0;startSize=0;swimlaneHead=0;swimlaneBody=0;fillColor=none;collapsible=0;dropTarget=0;points=[[0,0.5],[1,0.5]];portConstraint=eastwest;top=0;left=0;right=0;bottom=0;html=1;" vertex="1" parent="jfMkEadQY8UJY2CXn8ux-24">
          <mxGeometry y="30" width="180" height="90" as="geometry" />
        </mxCell>
        <mxCell id="jfMkEadQY8UJY2CXn8ux-32" value="" style="shape=partialRectangle;connectable=0;fillColor=none;top=0;left=0;bottom=0;right=0;editable=1;overflow=hidden;html=1;whiteSpace=wrap;" vertex="1" parent="jfMkEadQY8UJY2CXn8ux-31">
          <mxGeometry width="20" height="90" as="geometry">
            <mxRectangle width="20" height="90" as="alternateBounds" />
          </mxGeometry>
        </mxCell>
        <mxCell id="jfMkEadQY8UJY2CXn8ux-33" value="&lt;li&gt;&lt;span style=&quot;font-weight: 700;&quot;&gt;id_wallet&lt;/span&gt;&lt;/li&gt;&lt;li&gt;&lt;span style=&quot;font-weight: 700;&quot;&gt;user_id&lt;/span&gt;&lt;span style=&quot;font-weight: 700;&quot;&gt;&lt;/span&gt;&lt;/li&gt;&lt;li&gt;value&lt;/li&gt;&lt;li&gt;type&lt;/li&gt;&lt;li&gt;date_transation&lt;/li&gt;" style="shape=partialRectangle;connectable=0;fillColor=none;top=0;left=0;bottom=0;right=0;align=left;spacingLeft=6;overflow=hidden;html=1;whiteSpace=wrap;" vertex="1" parent="jfMkEadQY8UJY2CXn8ux-31">
          <mxGeometry x="20" width="160" height="90" as="geometry">
            <mxRectangle width="160" height="90" as="alternateBounds" />
          </mxGeometry>
        </mxCell>
        <mxCell id="jfMkEadQY8UJY2CXn8ux-39" value="Evento" style="shape=table;startSize=30;container=1;collapsible=1;childLayout=tableLayout;fixedRows=1;rowLines=0;fontStyle=1;align=center;resizeLast=1;html=1;whiteSpace=wrap;" vertex="1" parent="1">
          <mxGeometry x="430" y="310" width="180" height="235" as="geometry" />
        </mxCell>
        <mxCell id="jfMkEadQY8UJY2CXn8ux-40" value="" style="shape=tableRow;horizontal=0;startSize=0;swimlaneHead=0;swimlaneBody=0;fillColor=none;collapsible=0;dropTarget=0;points=[[0,0.5],[1,0.5]];portConstraint=eastwest;top=0;left=0;right=0;bottom=0;html=1;" vertex="1" parent="jfMkEadQY8UJY2CXn8ux-39">
          <mxGeometry y="30" width="180" height="30" as="geometry" />
        </mxCell>
        <mxCell id="jfMkEadQY8UJY2CXn8ux-41" value="PK" style="shape=partialRectangle;connectable=0;fillColor=none;top=0;left=0;bottom=0;right=0;fontStyle=1;overflow=hidden;html=1;whiteSpace=wrap;" vertex="1" parent="jfMkEadQY8UJY2CXn8ux-40">
          <mxGeometry width="60" height="30" as="geometry">
            <mxRectangle width="60" height="30" as="alternateBounds" />
          </mxGeometry>
        </mxCell>
        <mxCell id="jfMkEadQY8UJY2CXn8ux-42" value="id_evento" style="shape=partialRectangle;connectable=0;fillColor=none;top=0;left=0;bottom=0;right=0;align=left;spacingLeft=6;fontStyle=5;overflow=hidden;html=1;whiteSpace=wrap;" vertex="1" parent="jfMkEadQY8UJY2CXn8ux-40">
          <mxGeometry x="60" width="120" height="30" as="geometry">
            <mxRectangle width="120" height="30" as="alternateBounds" />
          </mxGeometry>
        </mxCell>
        <mxCell id="jfMkEadQY8UJY2CXn8ux-43" value="" style="shape=tableRow;horizontal=0;startSize=0;swimlaneHead=0;swimlaneBody=0;fillColor=none;collapsible=0;dropTarget=0;points=[[0,0.5],[1,0.5]];portConstraint=eastwest;top=0;left=0;right=0;bottom=1;html=1;" vertex="1" parent="jfMkEadQY8UJY2CXn8ux-39">
          <mxGeometry y="60" width="180" height="30" as="geometry" />
        </mxCell>
        <mxCell id="jfMkEadQY8UJY2CXn8ux-44" value="FK" style="shape=partialRectangle;connectable=0;fillColor=none;top=0;left=0;bottom=0;right=0;fontStyle=1;overflow=hidden;html=1;whiteSpace=wrap;" vertex="1" parent="jfMkEadQY8UJY2CXn8ux-43">
          <mxGeometry width="60" height="30" as="geometry">
            <mxRectangle width="60" height="30" as="alternateBounds" />
          </mxGeometry>
        </mxCell>
        <mxCell id="jfMkEadQY8UJY2CXn8ux-45" value="id_criador" style="shape=partialRectangle;connectable=0;fillColor=none;top=0;left=0;bottom=0;right=0;align=left;spacingLeft=6;fontStyle=5;overflow=hidden;html=1;whiteSpace=wrap;" vertex="1" parent="jfMkEadQY8UJY2CXn8ux-43">
          <mxGeometry x="60" width="120" height="30" as="geometry">
            <mxRectangle width="120" height="30" as="alternateBounds" />
          </mxGeometry>
        </mxCell>
        <mxCell id="jfMkEadQY8UJY2CXn8ux-46" value="" style="shape=tableRow;horizontal=0;startSize=0;swimlaneHead=0;swimlaneBody=0;fillColor=none;collapsible=0;dropTarget=0;points=[[0,0.5],[1,0.5]];portConstraint=eastwest;top=0;left=0;right=0;bottom=0;html=1;" vertex="1" parent="jfMkEadQY8UJY2CXn8ux-39">
          <mxGeometry y="90" width="180" height="145" as="geometry" />
        </mxCell>
        <mxCell id="jfMkEadQY8UJY2CXn8ux-47" value="" style="shape=partialRectangle;connectable=0;fillColor=none;top=0;left=0;bottom=0;right=0;editable=1;overflow=hidden;html=1;whiteSpace=wrap;" vertex="1" parent="jfMkEadQY8UJY2CXn8ux-46">
          <mxGeometry width="60" height="145" as="geometry">
            <mxRectangle width="60" height="145" as="alternateBounds" />
          </mxGeometry>
        </mxCell>
        <mxCell id="jfMkEadQY8UJY2CXn8ux-48" value="&lt;li&gt;titulo&lt;/li&gt;&lt;li&gt;descricao&lt;/li&gt;&lt;li&gt;dataEvento&lt;/li&gt;&lt;li&gt;inicioApostas&lt;/li&gt;&lt;li&gt;fimApostas&lt;/li&gt;&lt;li&gt;valor_cota&lt;/li&gt;&lt;li&gt;status&lt;/li&gt;&lt;li&gt;email&lt;/li&gt;&lt;li&gt;categoria&lt;/li&gt;" style="shape=partialRectangle;connectable=0;fillColor=none;top=0;left=0;bottom=0;right=0;align=left;spacingLeft=6;overflow=hidden;html=1;whiteSpace=wrap;" vertex="1" parent="jfMkEadQY8UJY2CXn8ux-46">
          <mxGeometry x="60" width="120" height="145" as="geometry">
            <mxRectangle width="120" height="145" as="alternateBounds" />
          </mxGeometry>
        </mxCell>
        <mxCell id="jfMkEadQY8UJY2CXn8ux-66" value="Participa" style="shape=table;startSize=30;container=1;collapsible=1;childLayout=tableLayout;fixedRows=1;rowLines=0;fontStyle=1;align=center;resizeLast=1;html=1;whiteSpace=wrap;" vertex="1" parent="1">
          <mxGeometry x="670" y="130" width="200" height="160" as="geometry" />
        </mxCell>
        <mxCell id="jfMkEadQY8UJY2CXn8ux-67" value="" style="shape=tableRow;horizontal=0;startSize=0;swimlaneHead=0;swimlaneBody=0;fillColor=none;collapsible=0;dropTarget=0;points=[[0,0.5],[1,0.5]];portConstraint=eastwest;top=0;left=0;right=0;bottom=0;html=1;" vertex="1" parent="jfMkEadQY8UJY2CXn8ux-66">
          <mxGeometry y="30" width="200" height="30" as="geometry" />
        </mxCell>
        <mxCell id="jfMkEadQY8UJY2CXn8ux-68" value="FK" style="shape=partialRectangle;connectable=0;fillColor=none;top=0;left=0;bottom=0;right=0;fontStyle=1;overflow=hidden;html=1;whiteSpace=wrap;" vertex="1" parent="jfMkEadQY8UJY2CXn8ux-67">
          <mxGeometry width="60" height="30" as="geometry">
            <mxRectangle width="60" height="30" as="alternateBounds" />
          </mxGeometry>
        </mxCell>
        <mxCell id="jfMkEadQY8UJY2CXn8ux-69" value="&lt;ul style=&quot;font-weight: 400;&quot;&gt;&lt;li&gt;id_participante&lt;/li&gt;&lt;/ul&gt;" style="shape=partialRectangle;connectable=0;fillColor=none;top=0;left=0;bottom=0;right=0;align=left;spacingLeft=6;fontStyle=5;overflow=hidden;html=1;whiteSpace=wrap;" vertex="1" parent="jfMkEadQY8UJY2CXn8ux-67">
          <mxGeometry x="60" width="140" height="30" as="geometry">
            <mxRectangle width="140" height="30" as="alternateBounds" />
          </mxGeometry>
        </mxCell>
        <mxCell id="jfMkEadQY8UJY2CXn8ux-70" value="" style="shape=tableRow;horizontal=0;startSize=0;swimlaneHead=0;swimlaneBody=0;fillColor=none;collapsible=0;dropTarget=0;points=[[0,0.5],[1,0.5]];portConstraint=eastwest;top=0;left=0;right=0;bottom=1;html=1;" vertex="1" parent="jfMkEadQY8UJY2CXn8ux-66">
          <mxGeometry y="60" width="200" height="30" as="geometry" />
        </mxCell>
        <mxCell id="jfMkEadQY8UJY2CXn8ux-71" value="FK" style="shape=partialRectangle;connectable=0;fillColor=none;top=0;left=0;bottom=0;right=0;fontStyle=1;overflow=hidden;html=1;whiteSpace=wrap;" vertex="1" parent="jfMkEadQY8UJY2CXn8ux-70">
          <mxGeometry width="60" height="30" as="geometry">
            <mxRectangle width="60" height="30" as="alternateBounds" />
          </mxGeometry>
        </mxCell>
        <mxCell id="jfMkEadQY8UJY2CXn8ux-72" value="&lt;ul style=&quot;font-weight: 400;&quot;&gt;&lt;li&gt;id_evento&lt;/li&gt;&lt;/ul&gt;" style="shape=partialRectangle;connectable=0;fillColor=none;top=0;left=0;bottom=0;right=0;align=left;spacingLeft=6;fontStyle=5;overflow=hidden;html=1;whiteSpace=wrap;" vertex="1" parent="jfMkEadQY8UJY2CXn8ux-70">
          <mxGeometry x="60" width="140" height="30" as="geometry">
            <mxRectangle width="140" height="30" as="alternateBounds" />
          </mxGeometry>
        </mxCell>
        <mxCell id="jfMkEadQY8UJY2CXn8ux-73" value="" style="shape=tableRow;horizontal=0;startSize=0;swimlaneHead=0;swimlaneBody=0;fillColor=none;collapsible=0;dropTarget=0;points=[[0,0.5],[1,0.5]];portConstraint=eastwest;top=0;left=0;right=0;bottom=0;html=1;" vertex="1" parent="jfMkEadQY8UJY2CXn8ux-66">
          <mxGeometry y="90" width="200" height="70" as="geometry" />
        </mxCell>
        <mxCell id="jfMkEadQY8UJY2CXn8ux-74" value="" style="shape=partialRectangle;connectable=0;fillColor=none;top=0;left=0;bottom=0;right=0;editable=1;overflow=hidden;html=1;whiteSpace=wrap;" vertex="1" parent="jfMkEadQY8UJY2CXn8ux-73">
          <mxGeometry width="60" height="70" as="geometry">
            <mxRectangle width="60" height="70" as="alternateBounds" />
          </mxGeometry>
        </mxCell>
        <mxCell id="jfMkEadQY8UJY2CXn8ux-75" value="&lt;div&gt;&lt;ul&gt;&lt;li&gt;qtd_cotas&lt;/li&gt;&lt;li&gt;total_apostado&lt;/li&gt;&lt;li&gt;aposta&lt;/li&gt;&lt;/ul&gt;&lt;/div&gt;" style="shape=partialRectangle;connectable=0;fillColor=none;top=0;left=0;bottom=0;right=0;align=left;spacingLeft=6;overflow=hidden;html=1;whiteSpace=wrap;" vertex="1" parent="jfMkEadQY8UJY2CXn8ux-73">
          <mxGeometry x="60" width="140" height="70" as="geometry">
            <mxRectangle width="140" height="70" as="alternateBounds" />
          </mxGeometry>
        </mxCell>
        <mxCell id="jfMkEadQY8UJY2CXn8ux-81" style="edgeStyle=orthogonalEdgeStyle;rounded=0;orthogonalLoop=1;jettySize=auto;html=1;entryX=1;entryY=0.5;entryDx=0;entryDy=0;" edge="1" parent="1" source="jfMkEadQY8UJY2CXn8ux-43" target="jfMkEadQY8UJY2CXn8ux-11">
          <mxGeometry relative="1" as="geometry" />
        </mxCell>
        <mxCell id="jfMkEadQY8UJY2CXn8ux-83" style="edgeStyle=orthogonalEdgeStyle;rounded=0;orthogonalLoop=1;jettySize=auto;html=1;exitX=0;exitY=0.5;exitDx=0;exitDy=0;entryX=1;entryY=0.5;entryDx=0;entryDy=0;" edge="1" parent="1" source="jfMkEadQY8UJY2CXn8ux-67" target="jfMkEadQY8UJY2CXn8ux-2">
          <mxGeometry relative="1" as="geometry" />
        </mxCell>
        <mxCell id="jfMkEadQY8UJY2CXn8ux-86" style="edgeStyle=orthogonalEdgeStyle;rounded=0;orthogonalLoop=1;jettySize=auto;html=1;entryX=0;entryY=0.5;entryDx=0;entryDy=0;" edge="1" parent="1" source="jfMkEadQY8UJY2CXn8ux-31" target="jfMkEadQY8UJY2CXn8ux-11">
          <mxGeometry relative="1" as="geometry" />
        </mxCell>
        <mxCell id="jfMkEadQY8UJY2CXn8ux-87" style="edgeStyle=orthogonalEdgeStyle;rounded=0;orthogonalLoop=1;jettySize=auto;html=1;entryX=0;entryY=0.5;entryDx=0;entryDy=0;" edge="1" parent="1" source="jfMkEadQY8UJY2CXn8ux-31" target="jfMkEadQY8UJY2CXn8ux-46">
          <mxGeometry relative="1" as="geometry" />
        </mxCell>
        <mxCell id="jfMkEadQY8UJY2CXn8ux-88" style="edgeStyle=orthogonalEdgeStyle;rounded=0;orthogonalLoop=1;jettySize=auto;html=1;entryX=0;entryY=0.5;entryDx=0;entryDy=0;" edge="1" parent="1" source="jfMkEadQY8UJY2CXn8ux-46" target="jfMkEadQY8UJY2CXn8ux-73">
          <mxGeometry relative="1" as="geometry" />
        </mxCell>
        <mxCell id="jfMkEadQY8UJY2CXn8ux-89" value="(0,N)" style="text;html=1;align=center;verticalAlign=middle;resizable=0;points=[];autosize=1;strokeColor=none;fillColor=none;" vertex="1" parent="1">
          <mxGeometry x="320" y="140" width="50" height="30" as="geometry" />
        </mxCell>
        <mxCell id="jfMkEadQY8UJY2CXn8ux-90" value="(0,N)" style="text;html=1;align=center;verticalAlign=middle;resizable=0;points=[];autosize=1;strokeColor=none;fillColor=none;" vertex="1" parent="1">
          <mxGeometry x="625" y="148" width="50" height="30" as="geometry" />
        </mxCell>
        <mxCell id="jfMkEadQY8UJY2CXn8ux-91" value="(0,N)" style="text;html=1;align=center;verticalAlign=middle;resizable=0;points=[];autosize=1;strokeColor=none;fillColor=none;" vertex="1" parent="1">
          <mxGeometry x="635" y="428" width="50" height="30" as="geometry" />
        </mxCell>
        <mxCell id="jfMkEadQY8UJY2CXn8ux-92" value="(1,N)" style="text;html=1;align=center;verticalAlign=middle;resizable=0;points=[];autosize=1;strokeColor=none;fillColor=none;" vertex="1" parent="1">
          <mxGeometry x="375" y="448" width="50" height="30" as="geometry" />
        </mxCell>
        <mxCell id="jfMkEadQY8UJY2CXn8ux-93" value="(1,1)" style="text;html=1;align=center;verticalAlign=middle;resizable=0;points=[];autosize=1;strokeColor=none;fillColor=none;" vertex="1" parent="1">
          <mxGeometry x="325" y="528" width="50" height="30" as="geometry" />
        </mxCell>
        <mxCell id="jfMkEadQY8UJY2CXn8ux-94" value="(1,1)" style="text;html=1;align=center;verticalAlign=middle;resizable=0;points=[];autosize=1;strokeColor=none;fillColor=none;" vertex="1" parent="1">
          <mxGeometry x="100" y="569" width="50" height="30" as="geometry" />
        </mxCell>
        <mxCell id="jfMkEadQY8UJY2CXn8ux-95" value="(1,N)" style="text;html=1;align=center;verticalAlign=middle;resizable=0;points=[];autosize=1;strokeColor=none;fillColor=none;" vertex="1" parent="1">
          <mxGeometry x="65" y="248" width="50" height="30" as="geometry" />
        </mxCell>
      </root>
    </mxGraphModel>
  </diagram>
</mxfile>
